<svg xmlns="http://www.w3.org/2000/svg" width="192" height="126" xmlns:xlink="http://www.w3.org/1999/xlink">
  <defs>
    <linearGradient id="a" x1="50%" x2="50%" y1="0%" y2="100%">
      <stop stop-color="#9E93FE" offset="0%"/>
      <stop stop-color="#645AFB" offset="100%"/>
    </linearGradient>
    <linearGradient id="d" x1="50%" x2="50%" y1="100%" y2="0%">
      <stop stop-color="#4FE3C3" offset="0%"/>
      <stop stop-color="#58FDD9" offset="100%"/>
    </linearGradient>
    <path id="c" d="M144 63c0 26.09775-21.488 47.25-48 47.25S48 89.09775 48 63s21.488-47.25 48-47.25S144 36.90225 144 63"/>
    <filter id="b" width="200%" height="200%" x="-50%" y="-50%" filterUnits="objectBoundingBox">
      <feOffset in="SourceAlpha" result="shadowOffsetOuter1"/>
      <feGaussianBlur stdDeviation="7" in="shadowOffsetOuter1" result="shadowBlurOuter1"/>
      <feColorMatrix values="0 0 0 0 0 0 0 0 0 0 0 0 0 0 0 0 0 0 0.3 0" in="shadowBlurOuter1"/>
    </filter>
  </defs>
  <g fill="none" fill-rule="evenodd">
    <path fill="url(#a)" d="M96 0C32 0 0 63 0 63s32 63 96 63 96-63 96-63S160 0 96 0"/>
    <use fill="#000" filter="url(#b)" xlink:href="#c"/>
    <use fill="url(#d)" xlink:href="#c"/>
    <path fill="#4A4A4A" d="M107.314 63.0019687l10.344-10.182375c3.128-3.079125 3.128-8.0561249 0-11.13525-3.128-3.0791249-8.184-3.0791249-11.312 0l-10.344 10.182375-10.344-10.182375c-3.128-3.0791249-8.184-3.0791249-11.312 0-3.128 3.0791251-3.128 8.056125 0 11.13525l10.344 10.182375-10.344 10.182375c-3.128 3.079125-3.128 8.056125 0 11.13525 1.56 1.535625 3.608 2.307375 5.656 2.307375 2.048 0 4.096-.77175 5.656-2.307375l10.344-10.182375 10.344 10.182375c1.56 1.535625 3.608 2.307375 5.656 2.307375 2.048 0 4.096-.77175 5.656-2.307375 3.128-3.079125 3.128-8.056125 0-11.13525l-10.344-10.182375z"/>
  </g>
</svg>
